<?xml version="1.0" encoding="UTF-8"?>
<svg id="Layer_1" data-name="Layer 1" xmlns="http://www.w3.org/2000/svg" viewBox="0 0 16 16">
  <defs>
    <style>
      .cls-1 {
        fill: #fff;
      }

      .cls-2 {
        fill: #0186ff;
      }
    </style>
  </defs>
  <rect class="cls-1" width="16" height="16"/>
  <path class="cls-2" d="M2.86,13.23c-.26,0-.51-.08-.73-.24-.48-.36-.62-1-.35-1.53l3.98-7.7c.27-.52.76-.87,1.34-.96.58-.09,1.15.09,1.57.51l.76.75-.92.92-.76-.75c-.12-.12-.28-.17-.45-.15-.17.03-.3.13-.38.27l-3.72,7.21,7.69-7.69c.33-.33.78-.52,1.25-.52h0c.47,0,.92.19,1.25.52.68.69.68,1.81,0,2.49l-1.16,1.15,1.51,1.51c.84.84.84,2.2,0,3.04-.41.41-.95.63-1.52.63s-1.12-.22-1.52-.63l-2.51-2.51.92-.92,2.51,2.51c.16.16.37.25.6.25s.44-.09.6-.25c.33-.33.33-.87,0-1.2l-2.43-2.43,2.08-2.07c.18-.18.18-.47,0-.66-.09-.09-.2-.14-.33-.14h0c-.12,0-.24.05-.33.14L3.72,12.87c-.23.23-.55.35-.86.35Z"/>
</svg>