<?xml version="1.0" encoding="UTF-8"?>
<svg id="Layer_1" data-name="Layer 1" xmlns="http://www.w3.org/2000/svg" viewBox="0 0 841.66 692.07">
  <defs>
    <style>
      .cls-1 {
        fill: #0186ff;
      }
    </style>
  </defs>
  <path class="cls-1" d="M80.37,692.07c-16.9,0-33.8-5.22-48.09-15.88-31.42-23.59-41.28-66.01-23.48-101.05L272.04,65.24c17.81-34.48,50.02-57.73,88.46-63.74,38.45-6.01,76.21,6.24,103.66,33.68l50.02,49.9-60.79,61.02-50.02-49.9c-7.83-7.83-18.6-11.34-29.6-9.64-10.89,1.7-20.19,8.39-25.18,18.15l-246.45,477.36L611.37,72.83c22.12-22.12,51.38-34.25,82.68-34.25h.23c31.3,0,60.68,12.25,82.68,34.48,45.25,45.59,45.14,119.65-.34,165.02l-76.55,76.44,99.92,99.92c55.57,55.57,55.57,145.96,0,201.42-26.88,26.88-62.72,41.74-100.71,41.74s-73.83-14.86-100.71-41.74l-166.38-166.38,60.9-60.9,166.38,166.38c10.66,10.66,24.84,16.44,39.81,16.44s29.15-5.9,39.81-16.44c22-22,22-57.73,0-79.62l-160.93-160.82,137.57-137.34c11.91-11.91,12.02-31.42,0-43.44-5.78-5.78-13.5-9.07-21.78-9.07h0c-8.17,0-15.88,3.18-21.78,8.96L137.42,668.59c-15.54,15.54-36.18,23.48-57.05,23.48Z"/>
</svg>