<svg xmlns="http://www.w3.org/2000/svg" xmlns:xlink="http://www.w3.org/1999/xlink" preserveAspectRatio="xMidYMid meet" width="512" height="512" viewBox="0 0 512 512" style="width:100%;height:100%"><defs><animate repeatCount="indefinite" dur="1.88s" begin="0s" xlink:href="#_R_G_L_0_G" fill="freeze" attributeName="opacity" from="0" to="0" keyTimes="0;0.3404255;0.6808511;1" values="0;1;1;0" keySplines="0.167 0.167 0.833 0.833;0.167 0.167 0.833 0.833;0.167 0.167 0.833 0.833" calcMode="spline"/><animateMotion repeatCount="indefinite" dur="1.88s" begin="0s" xlink:href="#_R_G_L_0_G" fill="freeze" keyTimes="0;0.3404255;0.6808511;1" path="M508 414.19 C508,414.19 508,364.19 508,364.19 C508,364.19 508,364.19 508,364.19 C508,364.19 508,344.19 508,344.19 " keyPoints="0;0.71;0.71;1" keySplines="0.167 0.167 0.833 0.833;0.167 0.167 0.833 0.833;0.167 0.167 0.833 0.833" calcMode="spline"/><animateTransform repeatCount="indefinite" dur="1.88s" begin="0s" xlink:href="#_R_G_L_0_G" fill="freeze" attributeName="transform" from="-225.536 -118.187" to="-225.536 -118.187" type="translate" additive="sum" keyTimes="0;1" values="-225.536 -118.187;-225.536 -118.187" keySplines="0 0 1 1" calcMode="spline"/><animate attributeType="XML" attributeName="opacity" dur="2s" from="0" to="1" xlink:href="#time_group"/></defs><g id="_R_G"><g id="_R_G_L_1_G"><path id="_R_G_L_1_G_D_0_P_0" fill="#0186ff" fill-opacity="1" fill-rule="nonzero" d=" M409.19 285.84 C402.03,285.84 395.29,287.67 389.4,290.86 C389.4,290.86 389.4,33.83 389.4,33.83 C389.4,16.79 375.54,2.79 358.51,2.63 C358.51,2.63 92.71,0 92.71,0 C84.31,-0.08 76.41,3.13 70.44,9.03 C64.48,14.94 61.2,22.81 61.2,31.2 C61.2,31.2 61.2,477.51 61.2,477.51 C61.2,494.71 75.19,508.71 92.4,508.71 C92.4,508.71 202.72,508.71 202.72,508.71 C209.27,510.85 216.18,512 223.21,512 C223.21,512 380.86,512 380.86,512 C419.43,512 450.8,480.62 450.8,442.05 C450.8,442.05 450.8,327.46 450.8,327.46 C450.8,304.51 432.14,285.84 409.19,285.84z  M85.92 24.66 C87.68,22.92 90.01,21.97 92.49,22 C92.49,22 358.29,24.62 358.29,24.62 C363.32,24.67 367.4,28.8 367.4,33.83 C367.4,33.83 367.4,271.98 367.4,271.98 C354.77,264.91 336.92,265.81 325.12,274.01 C316.31,252.01 288.39,241.59 267.13,253.4 C267.13,253.4 267.13,175.17 267.13,175.17 C267.13,152.24 248.47,133.59 225.52,133.59 C202.58,133.59 183.92,152.25 183.92,175.19 C183.92,175.19 183.91,282 183.91,282 C183.91,282 163.84,282 163.84,282 C140.9,282 122.24,300.66 122.23,323.6 C122.23,323.6 122.23,390.34 122.23,390.34 C122.23,390.34 83.2,390.34 83.2,390.34 C83.2,390.34 83.2,31.2 83.2,31.2 C83.2,28.73 84.17,26.41 85.92,24.66z  M83.2 477.51 C83.2,477.51 83.2,412.34 83.2,412.34 C83.2,412.34 124.74,412.34 124.74,412.34 C124.74,412.34 166.58,480.35 166.58,480.35 C167.95,482.57 169.44,484.69 171.05,486.71 C171.05,486.71 92.4,486.71 92.4,486.71 C87.33,486.71 83.2,482.58 83.2,477.51z  M428.8 442.05 C428.8,468.49 407.3,490 380.86,490 C380.86,490 223.21,490 223.21,490 C207.87,490 193.35,481.89 185.32,468.83 C185.32,468.83 144.23,402.03 144.23,402.03 C144.23,402.03 144.23,323.6 144.23,323.6 C144.24,312.79 153.03,304 163.84,304 C163.84,304 183.91,304 183.91,304 C183.91,315.49 183.91,343.09 183.92,354.87 C183.92,354.87 183.93,354.87 183.93,354.87 C184.98,370.27 205.4,369.12 205.91,354.87 C205.91,354.87 205.92,354.87 205.92,354.87 C205.93,334.54 205.94,326.54 205.91,292.55 C205.91,292.55 205.92,175.19 205.92,175.19 C205.92,164.38 214.71,155.59 225.54,155.59 C236.34,155.59 245.13,164.37 245.13,175.17 C245.13,175.17 245.13,322.12 245.13,322.12 C245.72,336.71 266.55,336.7 267.13,322.12 C267.13,322.12 267.14,290.09 267.14,290.09 C268.21,264.08 305.28,264.08 306.36,290.09 C306.36,290.09 306.36,340.8 306.36,340.8 C306.93,355.37 327.77,355.4 328.36,340.8 C328.36,340.8 328.36,308.77 328.36,308.77 C329.43,282.76 366.51,282.76 367.58,308.77 C367.58,308.77 367.58,368.82 367.58,368.82 C367.58,374.9 372.51,379.82 378.58,379.82 C384.66,379.82 389.58,374.9 389.58,368.82 C389.58,368.82 389.58,327.46 389.58,327.46 C389.58,316.64 398.38,307.84 409.19,307.84 C420.01,307.84 428.8,316.64 428.8,327.46 C428.8,327.46 428.8,442.05 428.8,442.05z "/></g><g id="_R_G_L_0_G"><path id="_R_G_L_0_G_D_0_P_0" fill="#0186ff" fill-opacity="1" fill-rule="nonzero" d=" M33.48 -89.48 C27.41,-89.48 22.48,-94.4 22.48,-100.48 C18.15,-198.88 -131.11,-198.82 -135.41,-100.48 C-135.41,-94.4 -140.33,-89.48 -146.41,-89.48 C-152.48,-89.48 -157.41,-94.4 -157.41,-100.48 C-151.85,-228.07 38.96,-228 44.48,-100.48 C44.48,-94.4 39.56,-89.48 33.48,-89.48z "/></g></g><g id="time_group"/></svg>