<svg xmlns="http://www.w3.org/2000/svg" xmlns:xlink="http://www.w3.org/1999/xlink" preserveAspectRatio="xMidYMid meet" width="500" height="500" viewBox="0 0 500 500" style="width:100%;height:100%"><defs><animateMotion repeatCount="indefinite" dur="1.92s" begin="0s" xlink:href="#_R_G_L_7_G" fill="freeze" keyTimes="0;0.0416667;0.25;0.5;0.7291667;0.9375;1" path="M250.63 294.59 C250.63,294.59 250.63,294.59 250.63,294.59 C250.63,292.09 250.63,279.59 250.63,279.59 C250.63,279.59 250.63,294.59 250.63,294.59 C250.63,294.59 250.63,279.59 250.63,279.59 C250.63,279.59 250.63,292.09 250.63,294.59 C250.63,294.59 250.63,294.59 250.63,294.59 " keyPoints="0;0;0.25;0.5;0.75;1;1" keySplines="0.51 0 0.49 1;0.51 0 0.49 1;0.51 0 0.49 1;0.51 0 0.49 1;0.51 0 0.49 1;0 0 0 0" calcMode="spline"/><animateTransform repeatCount="indefinite" dur="1.92s" begin="0s" xlink:href="#_R_G_L_7_G" fill="freeze" attributeName="transform" from="-30.228 -52.893" to="-30.228 -52.893" type="translate" additive="sum" keyTimes="0;1" values="-30.228 -52.893;-30.228 -52.893" keySplines="0 0 1 1" calcMode="spline"/><animateMotion repeatCount="indefinite" dur="1.92s" begin="0s" xlink:href="#_R_G_L_6_G" fill="freeze" keyTimes="0;0.0416667;0.25;0.5;0.7291667;0.9375;1" path="M159.4 294.61 C159.4,294.61 159.4,294.61 159.4,294.61 C159.4,294.61 139.4,294.61 139.4,294.61 C139.4,294.61 159.4,294.61 159.4,294.61 C159.4,294.61 139.4,294.61 139.4,294.61 C139.4,294.61 159.4,294.61 159.4,294.61 C159.4,294.61 159.4,294.61 159.4,294.61 " keyPoints="0;0;0.25;0.5;0.75;1;1" keySplines="0.59 0 0.41 1;0.59 0 0.41 1;0.59 0 0.41 1;0.59 0 0.41 1;0.59 0 0.41 1;0 0 0 0" calcMode="spline"/><animateTransform repeatCount="indefinite" dur="1.92s" begin="0s" xlink:href="#_R_G_L_6_G" fill="freeze" attributeName="transform" from="-62.455 -84.911" to="-62.455 -84.911" type="translate" additive="sum" keyTimes="0;1" values="-62.455 -84.911;-62.455 -84.911" keySplines="0 0 1 1" calcMode="spline"/><animateMotion repeatCount="indefinite" dur="1.92s" begin="0s" xlink:href="#_R_G_L_5_G" fill="freeze" keyTimes="0;0.0416667;0.25;0.5;0.7291667;0.9375;1" path="M340.6 294.61 C340.6,294.61 340.6,294.61 340.6,294.61 C340.6,294.61 360.6,294.61 360.6,294.61 C360.6,294.61 340.6,294.61 340.6,294.61 C340.6,294.61 360.6,294.61 360.6,294.61 C360.6,294.61 340.6,294.61 340.6,294.61 C340.6,294.61 340.6,294.61 340.6,294.61 " keyPoints="0;0;0.25;0.5;0.75;1;1" keySplines="0.59 0 0.41 1;0.59 0 0.41 1;0.59 0 0.41 1;0.59 0 0.41 1;0.59 0 0.41 1;0 0 0 0" calcMode="spline"/><animateTransform repeatCount="indefinite" dur="1.92s" begin="0s" xlink:href="#_R_G_L_5_G" fill="freeze" attributeName="transform" from="-62.455 -84.911" to="-62.455 -84.911" type="translate" additive="sum" keyTimes="0;1" values="-62.455 -84.911;-62.455 -84.911" keySplines="0 0 1 1" calcMode="spline"/><animate attributeType="XML" attributeName="opacity" dur="2s" from="0" to="1" xlink:href="#time_group"/></defs><g id="_R_G"><g id="_R_G_L_7_G"><path id="_R_G_L_7_G_D_0_P_0" stroke="#0186ff" stroke-linecap="round" stroke-linejoin="round" fill="none" stroke-width="16" stroke-opacity="1" d=" M52.46 8 C52.46,8 8,97.79 8,97.79 "/></g><g id="_R_G_L_6_G"><path id="_R_G_L_6_G_D_0_P_0" stroke="#0186ff" stroke-linecap="round" stroke-linejoin="round" fill="none" stroke-width="16" stroke-opacity="1" d=" M84.91 40 C84.91,40 40,84.91 40,84.91 C40,84.91 84.91,129.82 84.91,129.82 "/></g><g id="_R_G_L_5_G"><path id="_R_G_L_5_G_D_0_P_0" stroke="#0186ff" stroke-linecap="round" stroke-linejoin="round" fill="none" stroke-width="16" stroke-opacity="1" d=" M40 129.82 C40,129.82 84.91,84.91 84.91,84.91 C84.91,84.91 40,40 40,40 "/></g><g id="_R_G_L_4_G" transform=" translate(250, 250) translate(-221.3, -209.264)"><path id="_R_G_L_4_G_D_0_P_0" stroke="#0186ff" stroke-linecap="round" stroke-linejoin="round" fill="none" stroke-width="16" stroke-opacity="1" d=" M40 130.27 C40,130.27 402.6,130.27 402.6,130.27 "/><path id="_R_G_L_4_G_D_1_P_0" stroke="#0186ff" stroke-linecap="round" stroke-linejoin="round" fill="none" stroke-width="16" stroke-opacity="1" d=" M380.03 378.53 C392.5,378.53 402.6,368.42 402.6,355.96 C402.6,355.96 402.6,62.57 402.6,62.57 C402.6,50.1 392.5,40 380.03,40 C380.03,40 62.57,40 62.57,40 C50.11,40 40,50.1 40,62.57 C40,62.57 40,355.96 40,355.96 C40,368.42 50.11,378.53 62.57,378.53 C62.57,378.53 380.03,378.53 380.03,378.53z "/></g><g id="_R_G_L_3_G" transform=" translate(317.705, 125.873) translate(-76.457, -8)"><path id="_R_G_L_3_G_D_0_P_0" stroke="#0186ff" stroke-linecap="round" stroke-linejoin="round" fill="none" stroke-width="16" stroke-opacity="1" d=" M8 8 C8,8 144.92,8 144.92,8 "/></g><g id="_R_G_L_2_G" transform=" translate(204.25, 126.5) translate(136.5, 213.5)"><path id="_R_G_L_2_G_D_0_P_0" fill="#0186ff" fill-opacity="1" fill-rule="nonzero" d=" M-136.5 -221 C-140.64,-221 -144,-217.64 -144,-213.5 C-144,-209.36 -140.64,-206 -136.5,-206 C-132.36,-206 -129,-209.36 -129,-213.5 C-129,-217.64 -132.36,-221 -136.5,-221z "/></g><g id="_R_G_L_1_G" transform=" translate(159, 126.25) translate(136.5, 213.5)"><path id="_R_G_L_1_G_D_0_P_0" fill="#0186ff" fill-opacity="1" fill-rule="nonzero" d=" M-136.5 -221 C-140.64,-221 -144,-217.64 -144,-213.5 C-144,-209.36 -140.64,-206 -136.5,-206 C-132.36,-206 -129,-209.36 -129,-213.5 C-129,-217.64 -132.36,-221 -136.5,-221z "/></g><g id="_R_G_L_0_G" transform=" translate(114, 126.25) translate(136.5, 213.5)"><path id="_R_G_L_0_G_D_0_P_0" fill="#0186ff" fill-opacity="1" fill-rule="nonzero" d=" M-136.5 -221 C-140.64,-221 -144,-217.64 -144,-213.5 C-144,-209.36 -140.64,-206 -136.5,-206 C-132.36,-206 -129,-209.36 -129,-213.5 C-129,-217.64 -132.36,-221 -136.5,-221z "/></g></g><g id="time_group"/></svg>