<svg xmlns="http://www.w3.org/2000/svg" xmlns:xlink="http://www.w3.org/1999/xlink" preserveAspectRatio="xMidYMid meet" width="500" height="500" viewBox="0 0 500 500" style="width:100%;height:100%;/* background-color: brown; */"><defs><animateMotion repeatCount="indefinite" dur="1.32s" begin="0s" xlink:href="#_R_G_L_4_G" fill="freeze" keyTimes="0;0.4242424;0.5757576;0.7272727;0.8181818;0.9090909;1" path="M250 250 C250,250 250,250 250,250 C250,246.5 250,229 250,229 C250,229 250,246.5 250,250 C250,250 250,244 250,244 C250,244 250,250 250,250 C250,250 250,250 250,250 " keyPoints="0;0;0.39;0.78;0.89;1;1" keySplines="0.59 0 0.41 1;0.59 0 0.41 1;0.59 0 0.41 1;0.59 0 0.41 1;0.59 0 0.41 1;0 0 0 0" calcMode="spline"/><animateTransform repeatCount="indefinite" dur="1.32s" begin="0s" xlink:href="#_R_G_L_4_G" fill="freeze" attributeName="transform" from="-221.3 -197.98" to="-221.3 -197.98" type="translate" additive="sum" keyTimes="0;1" values="-221.3 -197.98;-221.3 -197.98" keySplines="0 0 1 1" calcMode="spline"/><animateMotion repeatCount="indefinite" dur="1.32s" begin="0s" xlink:href="#_R_G_L_3_G_N_4_T_0" fill="freeze" keyTimes="0;0.2424242;0.3939394;0.5454545;0.6363636;0.7272727;1" path="M295.52 295.14 C295.52,295.14 295.52,295.14 295.52,295.14 C295.52,291.64 295.52,274.14 295.52,274.14 C295.52,274.14 295.52,291.64 295.52,295.14 C295.52,295.14 295.52,289.14 295.52,289.14 C295.52,289.14 295.52,295.14 295.52,295.14 C295.52,295.14 295.52,295.14 295.52,295.14 " keyPoints="0;0;0.39;0.78;0.89;1;1" keySplines="0.59 0 0.41 1;0.59 0 0.41 1;0.59 0 0.41 1;0.59 0 0.41 1;0.59 0 0.41 1;0 0 0 0" calcMode="spline"/><animateTransform repeatCount="indefinite" dur="1.32s" begin="0s" xlink:href="#_R_G_L_3_G_N_4_T_0" fill="freeze" attributeName="transform" from="-175.785 -152.845" to="-175.785 -152.845" type="translate" additive="sum" keyTimes="0;1" values="-175.785 -152.845;-175.785 -152.845" keySplines="0 0 1 1" calcMode="spline"/><animateMotion repeatCount="indefinite" dur="1.32s" begin="0s" xlink:href="#_R_G_L_2_G" fill="freeze" keyTimes="0;0.2424242;0.3939394;0.5454545;0.6363636;0.7272727;1" path="M295.52 295.14 C295.52,295.14 295.52,295.14 295.52,295.14 C295.52,291.64 295.52,274.14 295.52,274.14 C295.52,274.14 295.52,291.64 295.52,295.14 C295.52,295.14 295.52,289.14 295.52,289.14 C295.52,289.14 295.52,295.14 295.52,295.14 C295.52,295.14 295.52,295.14 295.52,295.14 " keyPoints="0;0;0.39;0.78;0.89;1;1" keySplines="0.59 0 0.41 1;0.59 0 0.41 1;0.59 0 0.41 1;0.59 0 0.41 1;0.59 0 0.41 1;0 0 0 0" calcMode="spline"/><animateTransform repeatCount="indefinite" dur="1.32s" begin="0s" xlink:href="#_R_G_L_2_G" fill="freeze" attributeName="transform" from="-175.785 -152.845" to="-175.785 -152.845" type="translate" additive="sum" keyTimes="0;1" values="-175.785 -152.845;-175.785 -152.845" keySplines="0 0 1 1" calcMode="spline"/><animateMotion repeatCount="indefinite" dur="1.32s" begin="0s" xlink:href="#_R_G_L_1_G_N_2_T_0" fill="freeze" keyTimes="0;0.0606061;0.2121212;0.3636364;0.4545455;0.5454545;1" path="M431.3 407.98 C431.3,407.98 431.3,407.98 431.3,407.98 C431.3,404.48 431.3,386.98 431.3,386.98 C431.3,386.98 431.3,404.48 431.3,407.98 C431.3,407.98 431.3,401.98 431.3,401.98 C431.3,401.98 431.3,407.98 431.3,407.98 C431.3,407.98 431.3,407.98 431.3,407.98 " keyPoints="0;0;0.39;0.78;0.89;1;1" keySplines="0.59 0 0.41 1;0.59 0 0.41 1;0.59 0 0.41 1;0.59 0 0.41 1;0.59 0 0.41 1;0 0 0 0" calcMode="spline"/><animateTransform repeatCount="indefinite" dur="1.32s" begin="0s" xlink:href="#_R_G_L_1_G_N_2_T_0" fill="freeze" attributeName="transform" from="-221.3 -175.41" to="-221.3 -175.41" type="translate" additive="sum" keyTimes="0;1" values="-221.3 -175.41;-221.3 -175.41" keySplines="0 0 1 1" calcMode="spline"/><animateMotion repeatCount="indefinite" dur="1.32s" begin="0s" xlink:href="#_R_G_L_0_G" fill="freeze" keyTimes="0;0.0606061;0.2121212;0.3636364;0.4545455;0.5454545;1" path="M431.3 407.98 C431.3,407.98 431.3,407.98 431.3,407.98 C431.3,404.48 431.3,386.98 431.3,386.98 C431.3,386.98 431.3,404.48 431.3,407.98 C431.3,407.98 431.3,401.98 431.3,401.98 C431.3,401.98 431.3,407.98 431.3,407.98 C431.3,407.98 431.3,407.98 431.3,407.98 " keyPoints="0;0;0.39;0.78;0.89;1;1" keySplines="0.59 0 0.41 1;0.59 0 0.41 1;0.59 0 0.41 1;0.59 0 0.41 1;0.59 0 0.41 1;0 0 0 0" calcMode="spline"/><animateTransform repeatCount="indefinite" dur="1.32s" begin="0s" xlink:href="#_R_G_L_0_G" fill="freeze" attributeName="transform" from="-221.3 -175.41" to="-221.3 -175.41" type="translate" additive="sum" keyTimes="0;1" values="-221.3 -175.41;-221.3 -175.41" keySplines="0 0 1 1" calcMode="spline"/><animate attributeType="XML" attributeName="opacity" dur="1s" from="0" to="1" xlink:href="#time_group"/></defs><g id="_R_G"><g id="_R_G_L_4_G"><path id="_R_G_L_4_G_D_0_P_0" stroke="#0186ff" stroke-linecap="round" stroke-linejoin="round" fill="none" stroke-width="16" stroke-opacity="1" d=" M40 85.14 C40,85.14 402.6,85.14 402.6,85.14 "/><path id="_R_G_L_4_G_D_1_P_0" stroke="#0186ff" stroke-linecap="round" stroke-linejoin="round" fill="none" stroke-width="16" stroke-opacity="1" d=" M372.1 355.96 C372.1,355.96 70.5,355.96 70.5,355.96 C53.65,355.96 40,342.3 40,325.46 C40,325.46 40,70.5 40,70.5 C40,53.66 53.65,40 70.5,40 C70.5,40 372.1,40 372.1,40 C388.95,40 402.6,53.66 402.6,70.5 C402.6,70.5 402.6,325.46 402.6,325.46 C402.6,342.3 388.95,355.96 372.1,355.96z "/></g><g id="_R_G_L_3_G_N_4_T_0"><g id="_R_G_L_3_G"><path id="_R_G_L_3_G_D_0_P_0" fill="#ff0000" fill-opacity="1" fill-rule="nonzero" d=" M40 85.14 C40,85.14 311.57,85.14 311.57,85.14 "/><path id="_R_G_L_3_G_D_0_P_1" fill="#12334E" fill-opacity="0" fill-rule="nonzero" d=" M311.57 62.57 C311.57,62.57 311.57,243.12 311.57,243.12 C311.57,255.59 301.47,265.69 289,265.69 C289,265.69 62.56,265.69 62.56,265.69 C50.1,265.69 40,255.59 40,243.12 C40,243.12 40,62.57 40,62.57 C40,50.11 50.1,40 62.56,40 C62.56,40 289,40 289,40 C301.47,40 311.57,50.11 311.57,62.57z "/><path id="_R_G_L_3_G_D_1_P_0" stroke="#29E8AE" stroke-linecap="round" stroke-linejoin="round" fill="none" stroke-width="16" stroke-opacity="1" d=" M40 85.14 C40,85.14 311.57,85.14 311.57,85.14 "/><path id="_R_G_L_3_G_D_2_P_0" stroke="#12334E" stroke-linecap="round" stroke-linejoin="round" fill="none" stroke-width="16" stroke-opacity="1" d=" M311.57 62.57 C311.57,62.57 311.57,243.12 311.57,243.12 C311.57,255.59 301.47,265.69 289,265.69 C289,265.69 62.56,265.69 62.56,265.69 C50.1,265.69 40,255.59 40,243.12 C40,243.12 40,62.57 40,62.57 C40,50.11 50.1,40 62.56,40 C62.56,40 289,40 289,40 C301.47,40 311.57,50.11 311.57,62.57z "/></g></g><g id="_R_G_L_2_G"><path id="_R_G_L_2_G_D_0_P_0" stroke="#0186ff" stroke-linecap="round" stroke-linejoin="round" fill="none" stroke-width="16" stroke-opacity="1" d=" M40 85.14 C40,85.14 311.57,85.14 311.57,85.14 "/><path id="_R_G_L_2_G_D_1_P_0" stroke="#0186ff" stroke-linecap="round" stroke-linejoin="round" fill="none" stroke-width="17" stroke-opacity="1" d=" M311.57 62.57 C311.57,62.57 311.57,243.12 311.57,243.12 C311.57,255.59 301.47,265.69 289,265.69 C289,265.69 62.56,265.69 62.56,265.69 C50.1,265.69 40,255.59 40,243.12 C40,243.12 40,62.57 40,62.57 C40,50.11 50.1,40 62.56,40 C62.56,40 289,40 289,40 C301.47,40 311.57,50.11 311.57,62.57z "/></g><g id="_R_G_L_1_G_N_2_T_0"><g id="_R_G_L_1_G"><path id="_R_G_L_1_G_D_0_P_0" fill="#0186ff" fill-opacity="1" fill-rule="nonzero" d=" M40 85.14 C40,85.14 221.3,85.14 221.3,85.14 "/><path id="_R_G_L_1_G_D_0_P_1" fill="#12334E" fill-opacity="0" fill-rule="nonzero" d=" M221.3 62.57 C221.3,62.57 221.3,152.84 221.3,152.84 C221.3,165.31 211.2,175.41 198.73,175.41 C198.73,175.41 62.57,175.41 62.57,175.41 C50.1,175.41 40,165.31 40,152.84 C40,152.84 40,62.57 40,62.57 C40,50.1 50.1,40 62.57,40 C62.57,40 198.73,40 198.73,40 C211.2,40 221.3,50.1 221.3,62.57z "/><path id="_R_G_L_1_G_D_1_P_0" stroke="#29E8AE" stroke-linecap="round" stroke-linejoin="round" fill="none" stroke-width="16" stroke-opacity="1" d=" M40 85.14 C40,85.14 221.3,85.14 221.3,85.14 "/><path id="_R_G_L_1_G_D_2_P_0" stroke="#12334E" stroke-linecap="round" stroke-linejoin="round" fill="none" stroke-width="16" stroke-opacity="1" d=" M221.3 62.57 C221.3,62.57 221.3,152.84 221.3,152.84 C221.3,165.31 211.2,175.41 198.73,175.41 C198.73,175.41 62.57,175.41 62.57,175.41 C50.1,175.41 40,165.31 40,152.84 C40,152.84 40,62.57 40,62.57 C40,50.1 50.1,40 62.57,40 C62.57,40 198.73,40 198.73,40 C211.2,40 221.3,50.1 221.3,62.57z "/></g></g><g id="_R_G_L_0_G"><path id="_R_G_L_0_G_D_0_P_0" stroke="#0186ff" stroke-linecap="round" stroke-linejoin="round" fill="none" stroke-width="16" stroke-opacity="1" d=" M40 85.14 C40,85.14 221.3,85.14 221.3,85.14 "/><path id="_R_G_L_0_G_D_1_P_0" stroke="#0186ff" stroke-linecap="round" stroke-linejoin="round" fill="none" stroke-width="16" stroke-opacity="1" d=" M221.3 62.57 C221.3,62.57 221.3,152.84 221.3,152.84 C221.3,165.31 211.2,175.41 198.73,175.41 C198.73,175.41 62.57,175.41 62.57,175.41 C50.1,175.41 40,165.31 40,152.84 C40,152.84 40,62.57 40,62.57 C40,50.1 50.1,40 62.57,40 C62.57,40 198.73,40 198.73,40 C211.2,40 221.3,50.1 221.3,62.57z "/></g></g><g id="time_group"/></svg>